<svg width="17" height="17" viewBox="0 0 17 17" fill="none" xmlns="http://www.w3.org/2000/svg">
<g clip-path="url(#clip0_2_12921)">
<path d="M16.0234 8.19311C16.0234 7.46885 15.4342 6.87958 14.7098 6.87958H2.22785V2.61021C2.22785 2.11874 2.62768 1.71891 3.11915 1.71891H3.35249C3.59396 1.71891 3.82177 1.81707 3.98721 1.9846L3.94765 2.02416C3.28332 2.68848 3.28332 3.76937 3.94765 4.43377L4.17301 4.65913C4.27236 4.75848 4.40258 4.80818 4.53287 4.80818C4.66316 4.80818 4.79331 4.75855 4.89272 4.65913L7.11778 2.43407C7.31647 2.23538 7.31647 1.91312 7.11778 1.71443L6.89242 1.48907C6.57065 1.16723 6.14275 0.990034 5.68769 0.990034C5.3398 0.990034 5.00803 1.09386 4.72722 1.28639C4.37177 0.917854 3.87743 0.701172 3.35256 0.701172H3.11922C2.06655 0.701172 1.21011 1.55754 1.21011 2.61028V6.88609C0.545154 6.95015 0.0234375 7.51184 0.0234375 8.19318C0.0234375 8.75039 0.372789 9.22653 0.86356 9.41703V11.0942C0.86356 12.5734 1.91644 13.8114 3.31217 14.0983L2.87558 14.5349C2.6769 14.7336 2.6769 15.0558 2.87558 15.2545C2.97493 15.3538 3.10515 15.4035 3.23544 15.4035C3.36573 15.4035 3.49588 15.3539 3.59529 15.2545L4.68941 14.1609H11.3572L12.4517 15.2545C12.5509 15.3538 12.6811 15.4035 12.8115 15.4035C12.9417 15.4035 13.0719 15.3539 13.1714 15.2545C13.37 15.0558 13.37 14.7336 13.1714 14.5349L12.7348 14.0983C14.1306 13.8114 15.1835 12.5735 15.1835 11.0942V9.41703C15.674 9.22639 16.0234 8.75039 16.0234 8.19311ZM5.68769 2.0077C5.80572 2.0077 5.91914 2.03725 6.01953 2.09291L4.55191 3.56053C4.40804 3.29974 4.44654 2.96453 4.66743 2.74372L5.20258 2.20856C5.33217 2.07904 5.50447 2.0077 5.68769 2.0077ZM1.33704 7.89739H14.7098C14.873 7.89739 15.0057 8.03005 15.0057 8.19325C15.0057 8.3563 14.873 8.48904 14.7098 8.48904H1.33704C1.17392 8.48904 1.04125 8.3563 1.04125 8.19325C1.04125 8.03005 1.17392 7.89739 1.33704 7.89739ZM14.1655 11.0941C14.1655 12.2239 13.2462 13.1432 12.1162 13.1432H3.93057C2.8006 13.1432 1.8813 12.224 1.8813 11.0941V9.52134H14.1655V11.0941Z" fill="#626262"/>
</g>
<defs>
<clipPath id="clip0_2_12921">
<rect width="16" height="16" fill="white" transform="translate(0.0234375 0.0522461)"/>
</clipPath>
</defs>
</svg>
