<svg width="17" height="17" viewBox="0 0 17 17" fill="none" xmlns="http://www.w3.org/2000/svg">
<path d="M1.88744 7.30359C1.95491 7.31321 2.02225 7.31797 2.08922 7.31797C2.24894 7.31797 2.40597 7.29056 2.55494 7.23771V12.396C2.55494 12.6549 2.76481 12.8647 3.02369 12.8647H13.0237C13.2826 12.8647 13.4924 12.6549 13.4924 12.396V7.23768C13.6413 7.29037 13.7988 7.31775 13.9604 7.31775C14.4013 7.31775 14.8221 7.10743 15.0861 6.75525C15.3115 6.45478 15.4064 6.0845 15.3533 5.71259C15.3002 5.34068 15.1054 5.01175 14.8049 4.7864L13.4924 3.80203V0.520996C13.4924 0.262121 13.2826 0.0522461 13.0237 0.0522461H11.1487C10.8898 0.0522461 10.6799 0.262121 10.6799 0.520996V1.69262L8.86716 0.333059C8.3705 -0.0389414 7.67681 -0.0389414 7.18 0.333215L1.24253 4.78634C0.941999 5.01171 0.747186 5.34065 0.694093 5.71256C0.640968 6.08447 0.735843 6.45475 0.961155 6.75509C1.1865 7.05568 1.51547 7.2505 1.88744 7.30359ZM3.49244 11.9272V6.61468L8.02369 3.21618L12.5549 6.61468V11.9272H3.49244ZM11.6174 0.989746H12.5549V3.0989L11.6174 2.39578V0.989746ZM1.62219 5.84512C1.63987 5.72112 1.70484 5.61146 1.80503 5.53634L7.74228 1.0834C7.82512 1.02131 7.92447 0.990309 8.02375 0.990309C8.123 0.990309 8.22219 1.02131 8.30487 1.08325L14.2424 5.53637C14.3426 5.6115 14.4075 5.72115 14.4252 5.84512C14.4429 5.96909 14.4113 6.0925 14.3361 6.19275C14.2468 6.3119 14.1098 6.38025 13.9604 6.38025C13.8587 6.38025 13.7617 6.34781 13.68 6.28662L8.30494 2.25521C8.13825 2.13021 7.90912 2.13021 7.74244 2.25521L2.36744 6.28656C2.26731 6.36162 2.14378 6.39312 2.01994 6.37553C1.89597 6.35784 1.78634 6.2929 1.71119 6.19262C1.63609 6.0925 1.60447 5.96909 1.62219 5.84512Z" fill="#626262"/>
<path d="M15.8861 14.0021L14.6361 12.7521C14.4531 12.569 14.1563 12.569 13.9732 12.7521C13.7902 12.9351 13.7902 13.2319 13.9732 13.415L14.423 13.8648H1.62383L2.07364 13.415C2.2567 13.2319 2.2567 12.9351 2.07364 12.752C1.89061 12.569 1.5938 12.569 1.41073 12.752L0.160734 14.002C-0.0223281 14.1851 -0.0223281 14.4819 0.160734 14.665L1.41073 15.915C1.50227 16.0065 1.6222 16.0523 1.74217 16.0523C1.86214 16.0523 1.98211 16.0065 2.07361 15.915C2.25667 15.7319 2.25667 15.4351 2.07361 15.252L1.62383 14.8023H14.423L13.9732 15.2521C13.7901 15.4351 13.7901 15.7319 13.9732 15.915C14.0648 16.0065 14.1847 16.0523 14.3047 16.0523C14.4246 16.0523 14.5446 16.0065 14.6361 15.915L15.8861 14.665C16.0692 14.4819 16.0692 14.1851 15.8861 14.0021Z" fill="#626262"/>
<path d="M10.8359 6.61475H5.21094C4.95206 6.61475 4.74219 6.82462 4.74219 7.0835V9.896C4.74219 10.1549 4.95206 10.3647 5.21094 10.3647H10.8359C11.0948 10.3647 11.3047 10.1549 11.3047 9.896V7.0835C11.3047 6.82462 11.0948 6.61475 10.8359 6.61475ZM5.67969 7.55225H7.55469V9.42725H5.67969V7.55225ZM10.3672 9.42725H8.49219V7.55225H10.3672V9.42725Z" fill="#626262"/>
</svg>
