<svg width="17" height="14" viewBox="0 0 17 14" fill="none" xmlns="http://www.w3.org/2000/svg">
<path d="M15.2423 7.07313V6.76841C15.2423 6.20707 14.9517 5.7126 14.5133 5.42666V2.10266C14.5133 1.2281 13.8018 0.516602 12.9272 0.516602H3.11966C2.24509 0.516602 1.53356 1.2281 1.53356 2.10266V5.42663C1.09513 5.71257 0.8045 6.20704 0.8045 6.76838V7.0731C0.355562 7.19132 0.0234375 7.6007 0.0234375 8.08626V11.6518C0.0234375 12.2127 0.466625 12.672 1.02122 12.6981V13.12C1.02122 13.3784 1.23069 13.5879 1.48906 13.5879C1.74744 13.5879 1.95691 13.3784 1.95691 13.12V12.6993H14.0899V13.12C14.0899 13.3784 14.2994 13.5879 14.5578 13.5879C14.8162 13.5879 15.0256 13.3784 15.0256 13.12V12.6981C15.5802 12.6719 16.0234 12.2127 16.0234 11.6517V8.08626C16.0234 7.60066 15.6913 7.19132 15.2423 7.07313ZM2.46928 2.10266C2.46928 1.74404 2.76103 1.45229 3.11966 1.45229H12.9272C13.2858 1.45229 13.5776 1.74404 13.5776 2.10266V5.16726H12.9538V4.34263C12.9538 3.76545 12.4842 3.29585 11.907 3.29585H9.38956C8.81238 3.29585 8.34278 3.76545 8.34278 4.34263V5.16726H7.70409V4.34263C7.70409 3.76545 7.2345 3.29585 6.65731 3.29585H4.13987C3.56266 3.29585 3.09309 3.76545 3.09309 4.34263V5.16726H2.46928V2.10266ZM12.0181 4.3426V5.05616C12.0181 5.11741 11.9682 5.16723 11.907 5.16723H9.38956C9.32831 5.16723 9.2785 5.11738 9.2785 5.05616V4.3426C9.2785 4.28135 9.32834 4.23154 9.38956 4.23154H11.907C11.9682 4.23154 12.0181 4.28135 12.0181 4.3426ZM6.76837 4.3426V5.05616C6.76837 5.11741 6.71853 5.16723 6.65731 5.16723H4.13987C4.07862 5.16723 4.02881 5.11738 4.02881 5.05616V4.3426C4.02881 4.28135 4.07866 4.23154 4.13987 4.23154H6.65731C6.71853 4.23154 6.76837 4.28135 6.76837 4.3426ZM1.74022 6.76838C1.74022 6.40145 2.03875 6.10295 2.40569 6.10295H13.6412C14.0081 6.10295 14.3067 6.40148 14.3067 6.76838V7.03863H1.74022V6.76838ZM15.0877 11.6517C15.0877 11.7134 15.0375 11.7636 14.9758 11.7636H1.07103C1.00934 11.7636 0.959125 11.7134 0.959125 11.6517V8.08626C0.959125 8.02457 1.00931 7.97438 1.07103 7.97438H14.9758C15.0375 7.97438 15.0878 8.02457 15.0878 8.08626V11.6517H15.0877Z" fill="#626262"/>
</svg>
